# xmcd
#
# Track frame offsets:
#	150
#	9729
#	23266
#	35889
#	47417
#	60488
#	71076
#	85239
#	100605
#	118098
#	137225
#	149877
#	161035
#	171030
#	186360
#	200590
#	214600
#	227526
#	249384
#	272881
#
# Disc length: 3798 seconds
#
# Revision: 1
# Processed by: cddbd v1.5.2PL0 Copyright (c) Steve Scherf et al.
# Submitted via: audiograbber 1.83.01
#
DISCID=210ed414
DTITLE=Sammy Davis jnr - Song and dance man
DYEAR=1900
DGENRE=
TTITLE0=Something's got to give
TTITLE1=Love me or leave me
TTITLE2=Hey there
TTITLE3=In a Persian market
TTITLE4=Just one of those things
TTITLE5=Too close for comfort
TTITLE6=Song and dance man
TTITLE7=Someone to watch over me
TTITLE8=Gee baby, ain't I good to you
TTITLE9=Blues in the night
TTITLE10=I concentrate on you
TTITLE11=Night and day
TTITLE12=They can't take that away from me
TTITLE13=Begin the Beguine
TTITLE14=My funny Valentine
TTITLE15=You're the top
TTITLE16=September song
TTITLE17=Bess you is my woman
TTITLE18=Birth of the Blues
TTITLE19=That old Black Magic
EXTD=
EXTT0=
EXTT1=
EXTT2=
EXTT3=
EXTT4=
EXTT5=
EXTT6=
EXTT7=
EXTT8=
EXTT9=
EXTT10=
EXTT11=
EXTT12=
EXTT13=
EXTT14=
EXTT15=
EXTT16=
EXTT17=
EXTT18=
EXTT19=
PLAYORDER=
